<svg width="24" height="21" viewBox="0 0 24 21" fill="none" xmlns="http://www.w3.org/2000/svg">
<path d="M24 3.04782C23.117 3.44045 22.168 3.70487 21.172 3.82406C22.189 3.21408 22.97 2.24753 23.337 1.09569C22.386 1.66059 21.332 2.07125 20.21 2.2926C19.313 1.33407 18.032 0.735107 16.616 0.735107C13.437 0.735107 11.101 3.70587 11.819 6.78982C7.728 6.58449 4.1 4.62134 1.671 1.63755C0.381 3.85411 1.002 6.75376 3.194 8.22211C2.388 8.19607 1.628 7.97472 0.965 7.60512C0.911 9.88979 2.546 12.0272 4.914 12.503C4.221 12.6913 3.462 12.7353 2.69 12.5871C3.316 14.5463 5.134 15.9715 7.29 16.0116C5.22 17.6372 2.612 18.3634 0 18.0549C2.179 19.4541 4.768 20.2704 7.548 20.2704C16.69 20.2704 21.855 12.537 21.543 5.60091C22.505 4.90479 23.34 4.0364 24 3.04782Z" fill="#25313C"/>
</svg>
